<mxfile host="app.diagrams.net" modified="2024-03-21T10:35:46.420Z" agent="Mozilla/5.0 (Windows NT 10.0; Win64; x64) AppleWebKit/537.36 (KHTML, like Gecko) Chrome/122.0.0.0 Safari/537.36 Edg/122.0.0.0" etag="q8OjBtjRp4P8Rba1tFVq" version="24.0.7" type="device">
  <diagram name="Page-1" id="h_tRD47ZT1VpYlW6sCoE">
    <mxGraphModel dx="802" dy="428" grid="0" gridSize="10" guides="1" tooltips="1" connect="1" arrows="1" fold="1" page="1" pageScale="1" pageWidth="850" pageHeight="1100" math="0" shadow="0">
      <root>
        <mxCell id="0" />
        <mxCell id="1" parent="0" />
        <mxCell id="XeGB86-y3gLH2Rus4KWl-1" value="" style="rounded=1;whiteSpace=wrap;html=1;fillColor=#e1d5e7;strokeColor=#9673a6;" vertex="1" parent="1">
          <mxGeometry x="80" y="120" width="120" height="220" as="geometry" />
        </mxCell>
        <mxCell id="XeGB86-y3gLH2Rus4KWl-2" value="" style="rounded=1;whiteSpace=wrap;html=1;fillColor=#f8cecc;strokeColor=#b85450;" vertex="1" parent="1">
          <mxGeometry x="220" y="120" width="120" height="220" as="geometry" />
        </mxCell>
        <mxCell id="XeGB86-y3gLH2Rus4KWl-3" value="" style="rounded=1;whiteSpace=wrap;html=1;fillColor=#ffe6cc;strokeColor=#d79b00;" vertex="1" parent="1">
          <mxGeometry x="640" y="120" width="120" height="220" as="geometry" />
        </mxCell>
        <mxCell id="XeGB86-y3gLH2Rus4KWl-4" value="" style="rounded=1;whiteSpace=wrap;html=1;fillColor=#fff2cc;strokeColor=#d6b656;" vertex="1" parent="1">
          <mxGeometry x="360" y="120" width="120" height="220" as="geometry" />
        </mxCell>
        <mxCell id="XeGB86-y3gLH2Rus4KWl-5" value="" style="rounded=1;whiteSpace=wrap;html=1;fillColor=#dae8fc;strokeColor=#6c8ebf;" vertex="1" parent="1">
          <mxGeometry x="500" y="120" width="120" height="220" as="geometry" />
        </mxCell>
        <mxCell id="XeGB86-y3gLH2Rus4KWl-6" value="" style="endArrow=none;html=1;rounded=0;fillColor=#e1d5e7;strokeColor=#9673a6;" edge="1" parent="1">
          <mxGeometry width="50" height="50" relative="1" as="geometry">
            <mxPoint x="80" y="160" as="sourcePoint" />
            <mxPoint x="200" y="160" as="targetPoint" />
          </mxGeometry>
        </mxCell>
        <mxCell id="XeGB86-y3gLH2Rus4KWl-11" value="Ready" style="edgeLabel;html=1;align=center;verticalAlign=middle;resizable=0;points=[];labelBackgroundColor=none;" vertex="1" connectable="0" parent="XeGB86-y3gLH2Rus4KWl-6">
          <mxGeometry x="-0.0208" relative="1" as="geometry">
            <mxPoint x="2" y="-20" as="offset" />
          </mxGeometry>
        </mxCell>
        <mxCell id="XeGB86-y3gLH2Rus4KWl-7" value="" style="endArrow=none;html=1;rounded=0;fillColor=#dae8fc;strokeColor=#6c8ebf;" edge="1" parent="1">
          <mxGeometry width="50" height="50" relative="1" as="geometry">
            <mxPoint x="500" y="160" as="sourcePoint" />
            <mxPoint x="620" y="160" as="targetPoint" />
          </mxGeometry>
        </mxCell>
        <mxCell id="XeGB86-y3gLH2Rus4KWl-14" value="Acceptance Testing" style="edgeLabel;html=1;align=center;verticalAlign=middle;resizable=0;points=[];labelBackgroundColor=none;" vertex="1" connectable="0" parent="XeGB86-y3gLH2Rus4KWl-7">
          <mxGeometry y="1" relative="1" as="geometry">
            <mxPoint y="-19" as="offset" />
          </mxGeometry>
        </mxCell>
        <mxCell id="XeGB86-y3gLH2Rus4KWl-8" value="" style="endArrow=none;html=1;rounded=0;fillColor=#ffe6cc;strokeColor=#d79b00;" edge="1" parent="1">
          <mxGeometry width="50" height="50" relative="1" as="geometry">
            <mxPoint x="640" y="160" as="sourcePoint" />
            <mxPoint x="760" y="160" as="targetPoint" />
          </mxGeometry>
        </mxCell>
        <mxCell id="XeGB86-y3gLH2Rus4KWl-15" value="Done" style="edgeLabel;html=1;align=center;verticalAlign=middle;resizable=0;points=[];labelBackgroundColor=none;" vertex="1" connectable="0" parent="XeGB86-y3gLH2Rus4KWl-8">
          <mxGeometry x="-0.0104" y="1" relative="1" as="geometry">
            <mxPoint x="1" y="-19" as="offset" />
          </mxGeometry>
        </mxCell>
        <mxCell id="XeGB86-y3gLH2Rus4KWl-9" value="" style="endArrow=none;html=1;rounded=0;fillColor=#fff2cc;strokeColor=#d6b656;" edge="1" parent="1">
          <mxGeometry width="50" height="50" relative="1" as="geometry">
            <mxPoint x="360" y="160" as="sourcePoint" />
            <mxPoint x="480" y="160" as="targetPoint" />
          </mxGeometry>
        </mxCell>
        <mxCell id="XeGB86-y3gLH2Rus4KWl-13" value="Dokumentation" style="edgeLabel;html=1;align=center;verticalAlign=middle;resizable=0;points=[];labelBackgroundColor=none;" vertex="1" connectable="0" parent="XeGB86-y3gLH2Rus4KWl-9">
          <mxGeometry x="-0.0208" relative="1" as="geometry">
            <mxPoint x="2" y="-20" as="offset" />
          </mxGeometry>
        </mxCell>
        <mxCell id="XeGB86-y3gLH2Rus4KWl-10" value="" style="endArrow=none;html=1;rounded=0;fillColor=#f8cecc;strokeColor=#b85450;" edge="1" parent="1">
          <mxGeometry width="50" height="50" relative="1" as="geometry">
            <mxPoint x="220" y="160" as="sourcePoint" />
            <mxPoint x="340" y="160" as="targetPoint" />
          </mxGeometry>
        </mxCell>
        <mxCell id="XeGB86-y3gLH2Rus4KWl-12" value="In Progress" style="edgeLabel;html=1;align=center;verticalAlign=middle;resizable=0;points=[];labelBackgroundColor=none;" vertex="1" connectable="0" parent="XeGB86-y3gLH2Rus4KWl-10">
          <mxGeometry x="-0.0104" y="-1" relative="1" as="geometry">
            <mxPoint x="1" y="-21" as="offset" />
          </mxGeometry>
        </mxCell>
        <mxCell id="XeGB86-y3gLH2Rus4KWl-16" value="&lt;font style=&quot;font-size: 14px;&quot;&gt;Tasks&lt;/font&gt;" style="text;html=1;align=center;verticalAlign=middle;resizable=0;points=[];autosize=1;strokeColor=none;fillColor=none;rotation=-90;" vertex="1" parent="1">
          <mxGeometry x="110" y="230" width="60" height="30" as="geometry" />
        </mxCell>
        <mxCell id="XeGB86-y3gLH2Rus4KWl-17" value="&lt;font style=&quot;font-size: 14px;&quot;&gt;Tasks&lt;/font&gt;" style="text;html=1;align=center;verticalAlign=middle;resizable=0;points=[];autosize=1;strokeColor=none;fillColor=none;rotation=-90;" vertex="1" parent="1">
          <mxGeometry x="250" y="230" width="60" height="30" as="geometry" />
        </mxCell>
        <mxCell id="XeGB86-y3gLH2Rus4KWl-18" value="&lt;font style=&quot;font-size: 14px;&quot;&gt;Tasks&lt;/font&gt;" style="text;html=1;align=center;verticalAlign=middle;resizable=0;points=[];autosize=1;strokeColor=none;fillColor=none;rotation=-90;" vertex="1" parent="1">
          <mxGeometry x="390" y="230" width="60" height="30" as="geometry" />
        </mxCell>
        <mxCell id="XeGB86-y3gLH2Rus4KWl-19" value="&lt;font style=&quot;font-size: 14px;&quot;&gt;Tasks&lt;/font&gt;" style="text;html=1;align=center;verticalAlign=middle;resizable=0;points=[];autosize=1;strokeColor=none;fillColor=none;rotation=-90;" vertex="1" parent="1">
          <mxGeometry x="530" y="230" width="60" height="30" as="geometry" />
        </mxCell>
        <mxCell id="XeGB86-y3gLH2Rus4KWl-20" value="&lt;font style=&quot;font-size: 14px;&quot;&gt;Tasks&lt;/font&gt;" style="text;html=1;align=center;verticalAlign=middle;resizable=0;points=[];autosize=1;strokeColor=none;fillColor=none;rotation=-90;" vertex="1" parent="1">
          <mxGeometry x="670" y="230" width="60" height="30" as="geometry" />
        </mxCell>
      </root>
    </mxGraphModel>
  </diagram>
</mxfile>
